<?xml version="1.0" standalone="no"?><!DOCTYPE svg PUBLIC "-//W3C//DTD SVG 1.1//EN" "http://www.w3.org/Graphics/SVG/1.1/DTD/svg11.dtd"><svg t="1734155029443" class="icon" viewBox="0 0 1024 1024" version="1.1" xmlns="http://www.w3.org/2000/svg" p-id="7070" width="24" height="24" xmlns:xlink="http://www.w3.org/1999/xlink"><path d="M567.68 72.277333l320.725333 170.666667A94.805333 94.805333 0 0 1 938.666667 326.570667v371.626666c0 35.157333-19.413333 67.413333-50.432 83.797334L567.466667 951.936c-34.688 18.389333-76.245333 18.389333-110.933334 0L135.765333 782.08A94.805333 94.805333 0 0 1 85.333333 698.282667v-371.626667c0-35.072 19.328-67.285333 50.261334-83.754667l320.725333-170.624a118.528 118.528 0 0 1 111.36 0z m-93.824 76.842667l-7.168 3.541333-256.426667 139.52a75.861333 75.861333 0 0 0-39.253333 59.733334L170.666667 358.826667v307.114666c0 25.685333 12.970667 49.493333 34.261333 63.402667l5.461333 3.285333 256.426667 138.922667a94.805333 94.805333 0 0 0 83.2 3.498667l7.125333-3.498667 256.469334-138.922667c22.613333-12.245333 37.333333-34.986667 39.466666-60.330666l0.256-6.4V358.826667c0-25.472-12.8-49.066667-33.706666-63.061334l-5.888-3.584-256.426667-139.52a94.805333 94.805333 0 0 0-83.456-3.541333z m217.173333 217.301333a42.666667 42.666667 0 1 1 42.666667 73.898667L554.666667 543.658667V725.333333a42.666667 42.666667 0 0 1-85.333334 0v-181.632L290.304 440.32a42.666667 42.666667 0 0 1 42.666667-73.898667L511.317333 469.333333h1.28z" fill="#363636" p-id="7071"></path></svg>