<?xml version="1.0" standalone="no"?><!DOCTYPE svg PUBLIC "-//W3C//DTD SVG 1.1//EN" "http://www.w3.org/Graphics/SVG/1.1/DTD/svg11.dtd"><svg t="1731552113315" class="icon" viewBox="0 0 1025 1024" version="1.1" xmlns="http://www.w3.org/2000/svg" p-id="7638" width="24.0234375" height="24" xmlns:xlink="http://www.w3.org/1999/xlink"><path d="M510.982126 1024C229.203462 1024 0.003063 794.799601 0.003063 513.020937S229.203462 2.041874 510.982126 2.041874 1021.961188 231.242273 1021.961188 513.020937 792.76079 1024 510.982126 1024z m0-948.961117c-241.451645 0-437.982054 196.530409-437.982054 437.982054s196.530409 437.982054 437.982054 437.982054 437.982054-196.530409 437.982053-437.982054-196.530409-437.982054-437.982053-437.982054z" fill="#363636" p-id="7639"></path><path d="M875.96717 530.887338c-10.209372 0-18.376869-8.167498-18.376869-18.376869 0-191.425723-155.692921-346.608175-346.608175-346.608176-10.209372 0-18.376869-8.167498-18.37687-18.376869s8.167498-18.376869 18.37687-18.37687c211.333998 0 383.361914 172.027916 383.361914 383.361915 0 10.209372-8.167498 18.376869-18.37687 18.376869zM839.213432 622.261216c0 10.209372 8.167498 18.376869 18.376869 18.37687s18.376869-8.167498 18.376869-18.37687-8.167498-18.376869-18.376869-18.376869-18.376869 8.167498-18.376869 18.376869zM510.982126 640.638086c-70.444666 0-127.617149-57.172483-127.617149-127.617149s57.172483-127.617149 127.617149-127.617148 127.617149 57.172483 127.617148 127.617148-57.172483 127.617149-127.617148 127.617149z m0-200.614158c-40.327019 0-72.997009 32.66999-72.997009 72.997009s32.66999 72.997009 72.997009 72.997009 72.997009-32.66999 72.997009-72.997009-32.66999-72.997009-72.997009-72.997009z" fill="#363636" p-id="7640"></path><path d="M593.167569 476.267198c-7.14656 0-13.782652-2.552343-19.397806-8.167497-10.71984-10.71984-10.71984-28.075773 0-38.795613l127.617148-127.617149c10.71984-10.71984 28.075773-10.71984 38.795613 0s10.71984 28.075773 0 38.795613l-127.617148 128.127617c-5.615155 5.104686-12.761715 7.657029-19.397807 7.657029z" fill="#363636" p-id="7641"></path></svg>